<?xml version="1.0" standalone="no"?>
<!DOCTYPE svg PUBLIC "-//W3C//DTD SVG 20010904//EN"
 "http://www.w3.org/TR/2001/REC-SVG-20010904/DTD/svg10.dtd">
<svg version="1.0" xmlns="http://www.w3.org/2000/svg"
 width="752.000000pt" height="752.000000pt" viewBox="0 0 752.000000 752.000000"
 preserveAspectRatio="xMidYMid meet">
<metadata>
Created by potrace 1.11, written by Peter Selinger 2001-2013
</metadata>
<g transform="translate(0.000000,752.000000) scale(0.100000,-0.100000)"
fill="#000000" stroke="none">
<path d="M3847 5252 c-9 -2 -17 -7 -18 -10 0 -4 -2 -14 -4 -22 -40 -160 -55
-219 -59 -240 -2 -14 -25 -110 -51 -214 -26 -105 -49 -197 -51 -205 -2 -9 -15
-63 -28 -121 -14 -58 -44 -179 -66 -270 -23 -91 -43 -176 -46 -190 -5 -24 -22
-95 -28 -115 -3 -11 -29 -127 -31 -135 0 -3 -4 -11 -8 -17 -5 -7 -6 -13 -4
-13 4 0 -5 -42 -28 -130 -2 -8 -20 -85 -40 -170 -20 -85 -43 -180 -51 -210 -8
-30 -17 -66 -20 -80 -3 -14 -19 -79 -35 -145 -16 -66 -32 -133 -35 -150 -3
-16 -9 -43 -15 -60 -8 -26 -83 -335 -94 -388 -2 -10 -7 -27 -10 -37 -14 -44
-13 -58 3 -62 14 -3 483 -2 533 1 10 1 19 12 22 29 4 23 39 174 51 222 13 48
27 108 32 130 2 14 7 33 10 42 3 9 7 26 9 37 10 42 13 57 29 117 8 33 18 71
20 85 2 13 5 24 6 24 1 0 4 11 6 25 3 14 10 43 16 65 6 22 12 47 13 55 1 8 12
53 24 100 12 47 25 96 27 110 3 14 12 52 21 85 14 57 17 70 27 113 2 9 9 37
16 62 7 25 14 56 17 70 2 14 17 77 34 142 16 64 31 127 33 140 3 12 5 23 6 23
1 0 3 7 5 15 2 8 10 47 20 85 9 39 18 77 20 85 2 8 10 42 19 75 9 33 19 72 21
87 2 15 9 46 16 70 7 24 14 52 16 62 2 10 13 55 24 100 12 45 23 92 25 106 3
14 11 45 18 70 7 25 14 47 14 50 1 8 10 48 47 200 20 80 38 156 41 169 3 13
11 49 18 80 l13 56 -267 0 c-146 0 -274 -1 -283 -3z"/>
<path d="M2700 4960 c-19 -10 -107 -53 -195 -96 -88 -42 -237 -114 -332 -160
-94 -46 -176 -84 -182 -84 -6 0 -11 -4 -11 -10 0 -5 -4 -10 -9 -10 -9 0 -111
-49 -546 -260 -99 -48 -238 -115 -310 -150 -71 -34 -164 -79 -205 -100 l-75
-37 0 -292 0 -292 110 -53 c60 -30 209 -103 330 -162 121 -59 222 -108 225
-109 3 0 61 -28 130 -62 413 -201 589 -287 705 -343 72 -34 192 -93 267 -130
75 -38 139 -65 142 -62 3 3 6 157 6 342 0 259 -3 340 -12 347 -7 5 -62 30
-123 55 -60 26 -175 74 -255 108 -149 64 -160 68 -270 115 -36 15 -89 38 -118
51 -29 13 -55 24 -58 24 -3 0 -20 7 -37 15 -57 26 -222 97 -232 99 -10 3 -29
11 -95 39 l-35 16 40 16 c40 17 54 23 158 69 32 14 60 26 62 26 3 0 24 9 48
19 118 54 353 151 364 151 7 0 13 5 13 10 0 6 6 10 12 10 7 0 56 18 108 41 52
22 104 44 115 49 11 4 40 17 65 27 25 11 91 39 148 63 l102 43 0 349 c0 191
-3 348 -7 348 -5 0 -24 -9 -43 -20z"/>
<path d="M4770 4632 l0 -348 198 -84 c108 -46 222 -94 252 -107 30 -13 64 -28
75 -33 11 -4 36 -15 55 -23 19 -8 80 -34 135 -57 96 -41 128 -54 198 -84 17
-8 88 -38 157 -66 182 -76 173 -68 104 -97 -32 -13 -68 -28 -79 -33 -40 -18
-114 -49 -340 -145 -263 -111 -357 -151 -400 -170 -16 -7 -97 -41 -180 -76
-82 -34 -156 -67 -163 -74 -9 -8 -12 -87 -10 -352 l3 -342 130 63 c72 35 198
96 280 136 83 40 200 97 262 127 62 30 115 54 119 53 4 -1 10 2 13 7 3 5 26
19 51 30 72 33 363 173 383 184 9 5 25 13 35 19 9 5 103 51 207 101 361 173
420 202 425 210 3 4 5 137 5 294 l0 286 -25 14 c-14 8 -124 63 -245 121 -245
118 -441 213 -710 344 -99 48 -252 122 -340 165 -88 43 -256 124 -373 181
-117 57 -215 104 -218 104 -2 0 -4 -157 -4 -348z"/>
</g>
</svg>
